<?xml version="1.0" ?><!DOCTYPE svg  PUBLIC '-//W3C//DTD SVG 1.1//EN'  'http://www.w3.org/Graphics/SVG/1.1/DTD/svg11.dtd'><svg enable-background="new 0 0 24 24" fill="#777777" height="24px" id="Layer_1" version="1.1" viewBox="0 0 24 24" width="24px" xml:space="preserve" xmlns="http://www.w3.org/2000/svg" xmlns:xlink="http://www.w3.org/1999/xlink"><g><g><g><g><g><path d="M17.389,11.1L6.609,1.297L7.831,0.84c2.999-1.124,6.205-1.018,9.093,0.294l0.465,0.212V11.1z M8.108,1.585l8.485,7.716       V1.858C13.896,0.633,10.912,0.534,8.108,1.585L8.108,1.585z"/></g></g></g></g><g><g><g><g><path d="M7.061,22.969l-1.208-0.732c-2.229-1.352-3.98-3.409-4.93-5.795l-0.205-0.513l6.343-5.771V22.969z M1.662,16.146v0.002       c0.887,2.226,2.521,4.146,4.604,5.409v-9.599L1.662,16.146z"/></g></g></g></g><g><g><g><g><path d="M0.838,16.39l-0.341-1.26c-0.287-1.062-0.433-2.107-0.433-3.109c0-4.499,2.489-8.573,6.495-10.634l0.49-0.251       l1.526,1.385c1.207,1.098,2.973,2.704,3.097,2.816l0.65,0.585l-0.645,0.592c-0.073,0.067-1.52,1.385-3.285,2.993l-2.181,1.985       c-2.206,2.009-4.271,3.89-4.409,4.017L0.838,16.39z M6.922,2.095C3.183,4.018,0.86,7.822,0.86,12.021       c0,0.932,0.136,1.908,0.405,2.9c0.14-0.128,2.205-2.009,4.412-4.018l2.18-1.985c1.762-1.605,3.208-2.921,3.281-2.989l0,0       c-0.125-0.114-1.893-1.72-3.1-2.817L6.922,2.095z"/></g></g></g></g><g><g><g><g><path d="M13.034,23.933h-2.063c-1.361-0.123-2.648-0.462-3.862-1.009l-0.469-0.211v-6.637h16.634l-0.553,1.142       c-1.816,3.756-5.508,6.327-9.633,6.711L13.034,23.933z M7.436,22.199L7.436,22.199c1.133,0.511,2.335,0.825,3.572,0.939       l2.012-0.002c3.846-0.358,7.293-2.759,8.988-6.266H7.436V22.199z"/></g></g></g></g><g><g><g><g><path d="M23.074,16.492h-6.102V1.081l1.209,0.738c3.549,2.166,5.754,6.074,5.754,10.203c0,1.32-0.227,2.644-0.676,3.938       L23.074,16.492z M17.768,15.698h4.74c0.42-1.211,0.633-2.447,0.633-3.677c0-3.853-2.061-7.501-5.373-9.523V15.698z"/></g></g></g></g></g></svg>